<?xml version="1.0" encoding="UTF-8" standalone="no"?>
<!DOCTYPE svg PUBLIC "-//W3C//DTD SVG 1.1//EN"
 "http://www.w3.org/Graphics/SVG/1.1/DTD/svg11.dtd">
<!-- Generated by graphviz version 2.38.0 (20140413.2041)
 -->
<!-- Title: tree Pages: 1 -->
<svg width="170pt" height="332pt"
     viewBox="0.00 0.00 170.00 332.00" xmlns="http://www.w3.org/2000/svg">
<g id="graph0" class="graph" transform="scale(1 1) rotate(0) translate(4 328)">
<title>tree</title>
<!-- c0 -->
<g id="node1" class="node"><title>c0</title>
<polygon fill="white" stroke="black" points="90,-324 36,-324 36,-288 90,-288 90,-324"/>
</g>
<!-- d1 -->
<g id="node2" class="node"><title>d1</title>
<polygon fill="white" stroke="black" points="63,-216 90,-243 36,-243 63,-216"/>
</g>
<!-- c0&#45;&#45;d1 -->
<g id="edge1" class="edge"><title>c0&#45;&#45;d1</title>
<path fill="none" stroke="black" d="M63,-287.697C63,-273.445 63,-253.882 63,-243.047"/>
</g>
<!-- c2 -->
<g id="node3" class="node"><title>c2</title>
<polygon fill="white" stroke="black" points="54,-180 0,-180 0,-144 54,-144 54,-180"/>
<text text-anchor="middle" x="27" y="-158.9" font-family="Times New Roman,serif" font-size="12.00">x = a</text>
</g>
<!-- d1&#45;&#45;c2 -->
<g id="edge2" class="edge"><title>d1&#45;&#45;c2</title>
<path fill="none" stroke="black" d="M57.216,-221.753C51.452,-210.546 42.5238,-193.185 35.865,-180.237"/>
</g>
<!-- c3 -->
<g id="node4" class="node"><title>c3</title>
<polygon fill="white" stroke="black" points="126,-180 72,-180 72,-144 126,-144 126,-180"/>
</g>
<!-- d1&#45;&#45;c3 -->
<g id="edge3" class="edge"><title>d1&#45;&#45;c3</title>
<path fill="none" stroke="black" d="M68.784,-221.753C74.548,-210.546 83.4762,-193.185 90.135,-180.237"/>
</g>
<!-- d4 -->
<g id="node5" class="node"><title>d4</title>
<polygon fill="white" stroke="black" points="99,-72 126,-99 72,-99 99,-72"/>
</g>
<!-- c3&#45;&#45;d4 -->
<g id="edge4" class="edge"><title>c3&#45;&#45;d4</title>
<path fill="none" stroke="black" d="M99,-143.697C99,-129.445 99,-109.882 99,-99.047"/>
</g>
<!-- c5 -->
<g id="node6" class="node"><title>c5</title>
<polygon fill="white" stroke="black" points="90,-36 36,-36 36,-0 90,-0 90,-36"/>
<text text-anchor="middle" x="63" y="-14.9" font-family="Times New Roman,serif" font-size="12.00">x = b</text>
</g>
<!-- d4&#45;&#45;c5 -->
<g id="edge5" class="edge"><title>d4&#45;&#45;c5</title>
<path fill="none" stroke="black" d="M93.216,-77.7533C87.452,-66.5456 78.5238,-49.1851 71.865,-36.2374"/>
</g>
<!-- c6 -->
<g id="node7" class="node"><title>c6</title>
<polygon fill="white" stroke="black" points="162,-36 108,-36 108,-0 162,-0 162,-36"/>
<text text-anchor="middle" x="135" y="-14.9" font-family="Times New Roman,serif" font-size="12.00">x = c</text>
</g>
<!-- d4&#45;&#45;c6 -->
<g id="edge6" class="edge"><title>d4&#45;&#45;c6</title>
<path fill="none" stroke="black" d="M104.784,-77.7533C110.548,-66.5456 119.476,-49.1851 126.135,-36.2374"/>
</g>
</g>
</svg>
