<svg xmlns="http://www.w3.org/2000/svg" viewBox="0 -30 131 124"><g fill-rule="evenodd" clip-rule="evenodd"><path d="M56.5 12.5c2.8 0 5 2.2 5 5v6c0 2.8-2.2 5-5 5s-5-2.2-5-5v-6c0-2.8 2.2-5 5-5zm-18-8c2.8 0 5 2.2 5 5v10c0 2.8-2.2 5-5 5s-5-2.2-5-5v-10c0-2.8 2.2-5 5-5zm-18-2c2.8 0 5 2.2 5 5v19c0 2.8-2.2 5-5 5s-5-2.2-5-5v-19c0-2.8 2.2-5 5-5zm90 30c2.8 0 5 2.2 5 5v16c0 2.8-2.2 5-5 5s-5-2.2-5-5v-16c0-2.8 2.2-5 5-5zm-18-7c2.8 0 5 2.2 5 5v23c0 2.8-2.2 5-5 5s-5-2.2-5-5v-23c0-2.8 2.2-5 5-5zm-18 6c2.8 0 5 2.2 5 5v11c0 2.8-2.2 5-5 5s-5-2.2-5-5v-11c0-2.8 2.2-5 5-5z" fill="#7462e0"/><path d="M110.5 3.5c2.8 0 5 2.2 5 5s-2.2 5-5 5-5-2.2-5-5 2.2-5 5-5zm-18-3c2.8 0 5 2.2 5 5s-2.2 5-5 5-5-2.2-5-5 2.2-5 5-5zm-18 11c2.8 0 5 2.2 5 5s-2.2 5-5 5-5-2.2-5-5 2.2-5 5-5zm-54 33c2.8 0 5 2.2 5 5s-2.2 5-5 5-5-2.2-5-5 2.2-5 5-5zm18 4c2.8 0 5 2.2 5 5s-2.2 5-5 5-5-2.2-5-5 2.2-5 5-5zm18-8c2.8 0 5 2.2 5 5s-2.2 5-5 5-5-2.2-5-5 2.2-5 5-5z" fill="#939393"/></g></svg>