<svg xmlns="http://www.w3.org/2000/svg" viewBox="0 0 131 124"><path d="M24.8 115.9h1.9v5.5c-1.4 1.2-3.3 1.8-5.3 1.8-4.3 0-7.5-3-7.5-7.2 0-4.1 3.2-7.2 7.5-7.2 2.2 0 4.1.7 5.4 2.2l-1.2 1.2c-1.2-1.1-2.5-1.6-4.1-1.6-3.2 0-5.6 2.3-5.6 5.4 0 3.1 2.3 5.4 5.6 5.4 1.2 0 2.3-.3 3.3-.9v-4.6zm15 2.4h-8.6c.2 1.9 1.7 3.1 3.8 3.1 1.2 0 2.3-.4 3.1-1.3l1.1 1.2c-1 1.1-2.4 1.7-4.2 1.7-3.4 0-5.7-2.3-5.7-5.4 0-3.1 2.3-5.4 5.3-5.4 3.1 0 5.2 2.2 5.2 5.5v.6zm-8.6-1.3H38c-.2-1.8-1.5-3-3.4-3-1.8-.1-3.2 1.2-3.4 3zm21.4-.1v6.1h-1.9v-5.9c0-2.1-1-3.1-2.9-3.1-2 0-3.4 1.2-3.4 3.5v5.5h-1.9v-10.6h1.8v1.6c.8-1.1 2.1-1.7 3.8-1.7 2.6 0 4.5 1.5 4.5 4.6zm13.1 1.4h-8.6c.2 1.9 1.7 3.1 3.8 3.1 1.2 0 2.3-.4 3.1-1.3l1.1 1.2c-1 1.1-2.4 1.7-4.2 1.7-3.4 0-5.7-2.3-5.7-5.4 0-3.1 2.3-5.4 5.3-5.4 3.1 0 5.2 2.2 5.2 5.5.1.2 0 .5 0 .6zm-8.6-1.3h6.8c-.2-1.8-1.5-3-3.4-3-1.8-.1-3.2 1.2-3.4 3zm17-4.7v1.9h-.4c-2.1 0-3.3 1.3-3.3 3.6v5.3h-1.9v-10.6h1.8v1.8c.6-1.4 2-2 3.8-2zm10.8 4.3v6.4H83v-1.4c-.6 1-1.8 1.5-3.5 1.5-2.4 0-3.9-1.3-3.9-3.1 0-1.7 1.1-3.1 4.3-3.1h3v-.4c0-1.6-.9-2.6-2.8-2.6-1.3 0-2.5.4-3.4 1.1l-.8-1.4c1.1-.9 2.7-1.4 4.4-1.4 2.9.1 4.6 1.5 4.6 4.4zm-2 3.2v-1.5h-3c-1.9 0-2.4.7-2.4 1.6 0 1.1.9 1.7 2.3 1.7 1.5 0 2.7-.6 3.1-1.8zm11.5 2.6c-.6.5-1.5.7-2.3.7-2.1 0-3.4-1.2-3.4-3.3V114h-1.8v-1.6h1.8v-2.3h1.9v2.3h3v1.6h-3v5.7c0 1.1.6 1.8 1.7 1.8.6 0 1.1-.2 1.5-.5l.6 1.4zm1-4.7c0-3.2 2.3-5.4 5.5-5.4s5.5 2.2 5.5 5.4-2.3 5.4-5.5 5.4-5.5-2.2-5.5-5.4zm9 0c0-2.3-1.5-3.7-3.6-3.7-2 0-3.6 1.5-3.6 3.7 0 2.3 1.5 3.7 3.6 3.7s3.6-1.4 3.6-3.7zm10.3-5.4v1.9h-.4c-2.1 0-3.3 1.3-3.3 3.6v5.3h-2v-10.6h1.8v1.8c.8-1.4 2.1-2 3.9-2z" fill="#fff"/><path d="M.2 79.8h8.3c6 0 10 3.6 10 9.1S14.4 98 8.5 98H.2V79.8zm8 14.7c3.6 0 6-2.2 6-5.6 0-3.5-2.4-5.6-6-5.6H4.4v11.3h3.8zM33.7 90v8h-3.8v-1.7c-.8 1.3-2.2 2-4.3 2-3.3 0-5.2-1.8-5.2-4.2 0-2.5 1.7-4.2 6-4.2h3.2c0-1.7-1-2.8-3.2-2.8-1.5 0-3 .5-4 1.3L21 85.5c1.5-1.1 3.8-1.7 6-1.7 4.3 0 6.7 2 6.7 6.2zm-4 3.6v-1.4h-2.8c-1.9 0-2.5.7-2.5 1.6 0 1 .9 1.7 2.3 1.7 1.3 0 2.5-.6 3-1.9zm16.7 3.7c-.8.6-2.1.9-3.3.9-3.3 0-5.2-1.7-5.2-5v-5.7h-2.2v-3.1h2.2V81H42v3.4h3.5v3.1H42v5.7c0 1.2.6 1.8 1.7 1.8.6 0 1.2-.2 1.6-.5l1.1 2.8zM61.1 90v8h-3.8v-1.7c-.8 1.3-2.2 2-4.3 2-3.3 0-5.2-1.8-5.2-4.2 0-2.5 1.7-4.2 6-4.2H57c0-1.7-1-2.8-3.2-2.8-1.5 0-3 .5-4 1.3l-1.5-2.8c1.5-1.1 3.8-1.7 6-1.7 4.3-.1 6.8 1.9 6.8 6.1zM57 93.6v-1.4h-2.8c-1.9 0-2.5.7-2.5 1.6 0 1 .9 1.7 2.3 1.7s2.6-.6 3-1.9zm24.7-13.8V98h-4.2v-7.5h-8.3V98H65V79.8h4.2V87h8.3v-7.2h4.2zm17.7 12.3H88.8c.4 1.7 1.9 2.8 4 2.8 1.5 0 2.5-.4 3.5-1.4l2.2 2.3c-1.3 1.5-3.2 2.3-5.8 2.3-4.8 0-8-3-8-7.2s3.2-7.2 7.5-7.2c4.1 0 7.3 2.8 7.3 7.3 0 .4-.1.8-.1 1.1zm-10.7-2.3h6.9c-.3-1.8-1.6-2.9-3.4-2.9-1.8 0-3.2 1.1-3.5 2.9zm13.5-11.1h4.1V98h-4.1V78.7zm7.3 1.1c0-1.3 1-2.3 2.5-2.3s2.5.9 2.5 2.2c0 1.4-1 2.3-2.5 2.3-1.5.1-2.5-.9-2.5-2.2zm.5 4.2h4.1v14H110V84zm16.7 14l-3.1-4.3-3.2 4.3H116l5.4-7-5.2-6.9h4.5l3 4.1 3-4.1h4.3l-5.2 6.8 5.4 7.2h-4.5z" fill="#fff"/><g fill-rule="evenodd" clip-rule="evenodd"><path d="M56.5 12.5c2.8 0 5 2.2 5 5v6c0 2.8-2.2 5-5 5s-5-2.2-5-5v-6c0-2.8 2.2-5 5-5zm-18-8c2.8 0 5 2.2 5 5v10c0 2.8-2.2 5-5 5s-5-2.2-5-5v-10c0-2.8 2.2-5 5-5zm-18-2c2.8 0 5 2.2 5 5v19c0 2.8-2.2 5-5 5s-5-2.2-5-5v-19c0-2.8 2.2-5 5-5zm90 30c2.8 0 5 2.2 5 5v16c0 2.8-2.2 5-5 5s-5-2.2-5-5v-16c0-2.8 2.2-5 5-5zm-18-7c2.8 0 5 2.2 5 5v23c0 2.8-2.2 5-5 5s-5-2.2-5-5v-23c0-2.8 2.2-5 5-5zm-18 6c2.8 0 5 2.2 5 5v11c0 2.8-2.2 5-5 5s-5-2.2-5-5v-11c0-2.8 2.2-5 5-5z" fill="#fff"/><path d="M110.5 3.5c2.8 0 5 2.2 5 5s-2.2 5-5 5-5-2.2-5-5 2.2-5 5-5zm-18-3c2.8 0 5 2.2 5 5s-2.2 5-5 5-5-2.2-5-5 2.2-5 5-5zm-18 11c2.8 0 5 2.2 5 5s-2.2 5-5 5-5-2.2-5-5 2.2-5 5-5zm-54 33c2.8 0 5 2.2 5 5s-2.2 5-5 5-5-2.2-5-5 2.2-5 5-5zm18 4c2.8 0 5 2.2 5 5s-2.2 5-5 5-5-2.2-5-5 2.2-5 5-5zm18-8c2.8 0 5 2.2 5 5s-2.2 5-5 5-5-2.2-5-5 2.2-5 5-5z" fill="#fff"/></g></svg>