<svg xmlns="http://www.w3.org/2000/svg" xmlns:xlink="http://www.w3.org/1999/xlink" version="1.1" x="0px" y="0px" viewBox="0 -5 90 112.5" enable-background="new 0 0 90 90" xml:space="preserve"><g><path d="M39.5,26.3c7-2.2,10.9-9.7,8.7-16.7c-2.2-7-9.7-10.9-16.7-8.7s-10.9,9.7-8.7,16.7C25,24.6,32.5,28.5,39.5,26.3z M32.6,4.6   c5-1.6,10.4,1.2,12,6.2c1.6,5-1.2,10.4-6.2,12c-5,1.6-10.4-1.2-12-6.2C24.8,11.5,27.6,6.2,32.6,4.6z"/><path d="M71.4,49.8c-0.5-0.2-1-0.3-1.4-0.1c-0.5,0.1-0.9,0.5-1.1,0.9l-7.3,14.1c-3-1.6-6.7-2.1-10.3-1c-7,2.2-10.9,9.7-8.7,16.7   c2.2,7,9.7,10.9,16.7,8.7c7-2.2,10.9-9.7,8.7-16.7c-0.7-2.1-1.8-4-3.3-5.4l7.6-14.6C72.7,51.4,72.3,50.3,71.4,49.8z M58.2,85.4   c-5,1.6-10.4-1.2-12-6.2c-1.6-5,1.2-10.4,6.2-12c5-1.6,10.4,1.2,12,6.2C66,78.5,63.2,83.8,58.2,85.4z"/><path d="M51.5,20.9l13.9,7.2c-2,3.2-2.6,7.2-1.4,11c2.2,7,9.7,10.9,16.7,8.7c7-2.2,10.9-9.7,8.7-16.7c-2.2-7-9.7-10.9-16.7-8.7   c-1.8,0.6-3.4,1.5-4.8,2.7l-14.6-7.6c-0.5-0.2-1-0.3-1.4-0.1c-0.5,0.1-0.9,0.5-1.1,0.9C50.2,19.3,50.6,20.4,51.5,20.9z M73.8,26   c5-1.6,10.4,1.2,12,6.2c1.6,5-1.2,10.4-6.2,12c-5,1.6-10.4-1.2-12-6.2S68.8,27.6,73.8,26z"/><path d="M17.3,66.3c1.8-0.6,3.4-1.5,4.8-2.7l14.6,7.6c0.5,0.2,1,0.3,1.4,0.1c0.5-0.1,0.9-0.5,1.1-0.9c0.5-0.9,0.1-2.1-0.8-2.5   l-13.9-7.2c2-3.2,2.6-7.2,1.4-11c-2.2-7-9.7-10.9-16.7-8.7s-10.9,9.7-8.7,16.7S10.3,68.5,17.3,66.3z M10.4,44.5   c5-1.6,10.4,1.2,12,6.2c1.6,5-1.2,10.4-6.2,12c-5,1.6-10.4-1.2-12-6.2C2.6,51.5,5.4,46.1,10.4,44.5z"/></g></svg>