<svg xmlns="http://www.w3.org/2000/svg" xmlns:xlink="http://www.w3.org/1999/xlink" xml:space="preserve" version="1.1" style="shape-rendering:geometricPrecision;text-rendering:geometricPrecision;image-rendering:optimizeQuality;" viewBox="-50 -20 559 548.75" x="0px" y="0px" fill-rule="evenodd" clip-rule="evenodd"><defs><style type="text/css">
   
    .fil0 {fill:black;fill-rule:nonzero}
   
  </style></defs><g><path class="fil0" d="M304 26c27,14 53,35 55,68 0,57 0,113 0,170 0,27 -21,52 -55,69 -70,34 -180,34 -249,0 -34,-17 -55,-42 -55,-69 0,-57 0,-113 0,-170 1,-33 28,-54 55,-68 69,-35 179,-35 249,0zm35 113c-9,9 -21,17 -35,24 -70,35 -180,35 -249,0 -14,-7 -26,-15 -35,-24l0 40c0,20 17,38 44,51 51,26 123,29 179,18 6,-2 11,2 12,7 1,6 -2,11 -8,12 -60,13 -137,9 -192,-19 -14,-7 -26,-15 -35,-25l0 41c0,19 17,37 44,51 63,32 167,32 231,0 27,-14 44,-32 44,-51l0 -41c-15,15 -35,26 -52,33 -5,2 -11,-1 -13,-6 -2,-5 0,-11 6,-13 23,-9 59,-29 59,-58l0 -40zm-44 -95c-64,-32 -168,-32 -231,0 -27,13 -44,31 -44,51 0,19 17,37 44,51 63,31 167,31 231,0 27,-14 44,-32 44,-51 0,-20 -17,-38 -44,-51z"/></g></svg>