<svg xmlns="http://www.w3.org/2000/svg" xmlns:xlink="http://www.w3.org/1999/xlink" version="1.1" x="0px" y="0px" viewBox="0 0 1024 1280" style="enable-background:new 0 0 1024 1024;" xml:space="preserve"><g><polygon points="512,947 162,761.9 162,578 192,578 192,743.9 512,913 832,743.9 832,578 862,578 862,761.9  "/><path d="M415.8,721.4L53.3,530l119.2-150.1L535,571.3L415.8,721.4z M99.3,520.4l308.5,162.9L489,581L180.5,418.1   L99.3,520.4z"/><path d="M608.2,721.4L489,571.3l362.5-191.4L970.7,530L608.2,721.4z M535,581l81.2,102.3l308.5-162.9l-81.2-102.3   L535,581z"/><path d="M851.5,418.1L489,226.9l119.2-150l362.5,191.6L851.5,418.1z M535,217.2L843.5,380l81.2-101.9L616.2,115.1   L535,217.2z"/><path d="M172.5,418.1L53.3,268.5L415.8,76.9l119.2,150L172.5,418.1z M99.3,278.1L180.5,380L489,217.2l-81.2-102.2   L99.3,278.1z"/><rect x="497" y="576" width="30" height="354"/></g></svg>