<svg xmlns="http://www.w3.org/2000/svg" width="408.022" height="128.342">
  <g fill="#252525">
    <path d="M75.938 98.188c.098-.195.196-.195.294-.02l5.917 13.44c.078.157.059.255-.118.255h-1.273c-.176 0-.235-.02-.294-.177l-1.352-3.154h-6.034l-1.352 3.154c-.079.157-.118.177-.313.177H70.08c-.117 0-.137-.098-.059-.274l5.917-13.401zm-2.194 8.796h4.702l-2.253-5.309c-.079-.157-.118-.157-.177-.021l-2.272 5.33zM87.695 111.863c-.274 0-.333-.039-.333-.313V98.345c0-.118.02-.196.137-.196h1.273c.216 0 .255.078.255.274v11.736c0 .098.02.098.098.098h4.506c.176 0 .216.059.216.235v1.136c0 .177-.04.235-.216.235h-5.936zM102.253 111.863c-.157 0-.196-.02-.196-.216V99.873c0-.157 0-.196-.157-.196h-4.31c-.157 0-.196-.02-.196-.156v-1.195c0-.138.04-.177.177-.177h10.697c.137 0 .196.02.196.157v1.215c0 .137-.059.156-.196.156h-4.33c-.137 0-.157.039-.157.157v11.774c0 .177-.02.255-.157.255h-1.371zM119.457 97.894c3.918 0 7.131 3.175 7.131 7.093 0 3.919-3.213 7.073-7.131 7.073-3.958 0-7.151-3.154-7.151-7.073-.001-3.919 3.193-7.093 7.151-7.093zm0 12.618c3.037 0 5.486-2.469 5.486-5.525s-2.449-5.545-5.486-5.545c-3.057 0-5.525 2.488-5.525 5.545s2.468 5.525 5.525 5.525zM138.737 110.512c1.391 0 2.605-.235 3.409-.686v-4.389c0-.177-.04-.255-.196-.255h-3.742c-.137 0-.196-.06-.196-.216v-1.098c0-.137.118-.215.235-.215h5.231c.274 0 .313.059.313.255v6.622c0 .255-.02.313-.274.45-1.234.627-3.095 1.078-4.878 1.078-3.938-.02-7.073-2.92-7.073-7.073s3.213-7.093 7.229-7.093c1.666 0 3.194.412 4.526 1.117.157.078.215.137.215.294v1.176c0 .137-.098.215-.313.059-1.097-.666-2.664-1.098-4.428-1.098-3.292 0-5.544 2.488-5.544 5.545s2.449 5.527 5.486 5.527zM150.905 98.306c0-.138.059-.157.176-.157h6.76c.196 0 .254.039.254.177v1.155c0 .157-.02.196-.215.196h-5.29c-.02 0-.039 0-.039.039v4.252c0 .039 0 .059.059.059h5.31c.118 0 .176.078.176.235v.979c0 .255-.059.313-.196.313h-5.271c-.059 0-.078.02-.078.078v4.644c0 .039.02.059.059.059h5.329c.157 0 .157.098.157.294v.979c0 .157-.078.255-.254.255h-6.72c-.157 0-.216-.02-.216-.196V98.306zM168.364 111.863c-.157 0-.196-.02-.196-.216V99.873c0-.157 0-.196-.157-.196h-4.31c-.157 0-.196-.02-.196-.156v-1.195c0-.138.04-.177.177-.177h10.697c.137 0 .196.02.196.157v1.215c0 .137-.059.156-.196.156h-4.33c-.137 0-.157.039-.157.157v11.774c0 .177-.02.255-.157.255h-1.371zM180.532 111.863c-.157 0-.216-.039-.216-.177V98.364c0-.177.059-.216.196-.216h1.293c.118 0 .176.059.176.177v5.643c0 .059 0 .078.039.078h6.132c.059 0 .079-.039.079-.098v-5.623c0-.118.078-.177.215-.177h1.215c.176 0 .235.118.235.255v13.264c0 .118-.059.196-.177.196h-1.214c-.216 0-.274-.059-.274-.255v-5.897c0-.078-.039-.117-.118-.117h-6.074c-.039 0-.059.02-.059.059v5.995c0 .157-.059.216-.196.216h-1.252zM196.599 98.306c0-.138.059-.157.176-.157h6.76c.196 0 .255.039.255.177v1.155c0 .157-.02.196-.216.196h-5.29c-.02 0-.039 0-.039.039v4.252c0 .039 0 .059.059.059h5.31c.118 0 .177.078.177.235v.979c0 .255-.059.313-.196.313h-5.271c-.059 0-.078.02-.078.078v4.644c0 .039.02.059.059.059h5.329c.157 0 .157.098.157.294v.979c0 .157-.078.255-.255.255h-6.72c-.157 0-.216-.02-.216-.196V98.306zM213.253 98.148c3.801 0 4.977 1.47 4.977 3.82 0 1.822-.667 3.233-2.508 3.821l4.741 5.818c.078.099.098.255-.117.255h-1.549c-.156 0-.215-.059-.312-.177l-4.585-5.603h-1.842c-.196 0-.216.059-.216.215v5.329c0 .138-.02.235-.176.235h-1.273c-.156 0-.196-.059-.196-.235V98.384c0-.196.079-.235.235-.235h2.821zm-1.411 6.192c0 .196.02.235.196.235h1.273c2.175 0 3.194-.745 3.194-2.469 0-1.764-1.059-2.43-3.214-2.43h-1.234c-.196 0-.216.02-.216.216v4.448zM238.627 112.06c-1.234 0-2.429-.274-3.154-.646-.176-.099-.195-.157-.195-.313v-1.254c0-.118.098-.138.215-.079.765.529 1.842.823 2.803.823 1.979 0 2.958-.823 2.958-2.43 0-1.979-1.646-2.586-3.135-3.252-1.47-.666-2.704-1.548-2.704-3.723 0-1.979 1.293-3.232 3.703-3.232 1.195 0 2.194.273 2.821.627.118.078.157.156.157.273v1.215c0 .099-.118.138-.196.079-.666-.471-1.45-.765-2.488-.765-1.626 0-2.331.745-2.331 1.9 0 1.431 1.136 1.92 2.469 2.547 1.547.726 3.311 1.607 3.311 4.291-.001 2.763-1.745 3.939-4.234 3.939zM260.435 111.863c-.157 0-.196-.039-.196-.255v-9.6c0-.138-.098-.118-.176-.021l-4.604 5.428c-.196.215-.313.215-.47.039l-4.624-5.446c-.118-.118-.216-.079-.216.137v9.502c0 .177-.02.216-.156.216h-1.215c-.196 0-.235-.059-.235-.235V98.207c0-.176.157-.156.216-.098l6.27 7.093c.156.195.215.195.353.059l6.19-7.054c.157-.176.275-.098.275.079v13.381c0 .138-.02.196-.157.196h-1.255zM272.663 98.188c.098-.195.195-.195.294-.02l5.917 13.44c.078.157.059.255-.117.255h-1.273c-.177 0-.236-.02-.295-.177l-1.352-3.154h-6.034l-1.353 3.154c-.078.157-.117.177-.312.177h-1.333c-.117 0-.137-.098-.059-.274l5.917-13.401zm-2.195 8.796h4.702l-2.253-5.309c-.079-.157-.118-.157-.177-.021l-2.272 5.33zM287.535 98.148c3.801 0 4.977 1.47 4.977 3.82 0 1.822-.667 3.233-2.508 3.821l4.741 5.818c.078.099.098.255-.117.255h-1.549c-.156 0-.215-.059-.312-.177l-4.585-5.603h-1.842c-.196 0-.216.059-.216.215v5.329c0 .138-.02.235-.176.235h-1.273c-.156 0-.196-.059-.196-.235V98.384c0-.196.079-.235.235-.235h2.821zm-1.411 6.192c0 .196.02.235.196.235h1.273c2.175 0 3.194-.745 3.194-2.469 0-1.764-1.059-2.43-3.214-2.43h-1.234c-.196 0-.216.02-.216.216v4.448zM302.917 111.863c-.157 0-.196-.02-.196-.216V99.873c0-.157 0-.196-.157-.196h-4.31c-.157 0-.196-.02-.196-.156v-1.195c0-.138.039-.177.177-.177h10.697c.138 0 .196.02.196.157v1.215c0 .137-.059.156-.196.156h-4.33c-.138 0-.157.039-.157.157v11.774c0 .177-.02.255-.156.255h-1.372zM314.516 98.306c0-.138.059-.157.177-.157h6.759c.196 0 .255.039.255.177v1.155c0 .157-.02.196-.216.196h-5.289c-.02 0-.039 0-.039.039v4.252c0 .039 0 .059.059.059h5.309c.118 0 .177.078.177.235v.979c0 .255-.059.313-.196.313h-5.27c-.059 0-.078.02-.078.078v4.644c0 .039.02.059.059.059h5.328c.157 0 .157.098.157.294v.979c0 .157-.078.255-.255.255h-6.72c-.157 0-.216-.02-.216-.196V98.306zM330.78 98.148c3.801 0 4.977 1.47 4.977 3.82 0 1.822-.667 3.233-2.508 3.821l4.74 5.818c.078.099.099.255-.117.255h-1.548c-.157 0-.216-.059-.313-.177l-4.584-5.603h-1.842c-.196 0-.216.059-.216.215v5.329c0 .138-.02.235-.177.235h-1.273c-.156 0-.195-.059-.195-.235V98.384c0-.196.078-.235.234-.235h2.822zm-1.411 6.192c0 .196.02.235.196.235h1.273c2.174 0 3.193-.745 3.193-2.469 0-1.764-1.059-2.43-3.213-2.43h-1.234c-.196 0-.216.02-.216.216v4.448z"/>
    <path d="M23.788 54.59c-4.16 0-6.737-1.176-7.686-1.719-.859-.994-1.447-4.249-1.447-7.324.316-.587 1.356-.633 1.718-.136.904 2.939 3.934 7.099 7.776 7.099 3.346 0 4.883-2.306 4.883-4.566 0-3.662-3.436-5.832-6.148-7.188-3.255-1.628-6.827-4.341-6.827-8.816-.045-5.109 3.934-8.636 10.489-8.636 1.492 0 3.346.182 5.154.724.587.181.995.271 1.537.361.361.995.813 3.437.813 6.466-.226.542-1.356.588-1.763.136-.769-2.306-2.712-5.606-5.968-5.606-2.984 0-4.612 1.944-4.612 4.205 0 2.079 1.854 3.979 4.114 5.153l2.984 1.583c2.803 1.492 6.375 4.114 6.375 9.087.001 5.56-4.566 9.177-11.392 9.177zM75.062 24.479c0 .813.136 4.431.542 7.053-.181.543-1.401.724-1.718.316-1.221-4.204-4.114-6.465-8.5-6.465-5.019 0-10.398 4.295-10.398 13.292S60.187 52.51 65.612 52.51c5.471 0 8.002-3.934 9.223-7.008.362-.361 1.447-.226 1.718.316-.316 3.346-1.085 6.059-1.718 7.099-2.441.678-5.651 1.673-9.178 1.673-4.431 0-8.952-1.04-12.162-3.437-3.255-2.486-5.742-6.239-5.742-11.846 0-5.516 2.351-9.403 5.471-11.98 3.21-2.668 7.821-4.024 12.523-4.024 4.613 0 7.959 1.085 9.315 1.176zM120.549 38.811c0 9.856-6.601 15.779-16.321 15.779-9.088 0-15.688-5.968-15.688-15.417 0-8.952 6.691-15.87 16.141-15.87 9.403 0 15.868 6.33 15.868 15.508zm-16.231-13.428c-5.561 0-8.545 5.199-8.545 12.75 0 5.516 1.944 14.377 9.313 14.377 5.923 0 8.229-5.787 8.229-13.111 0-7.732-3.39-14.016-8.997-14.016zM142.935 27.417c0-1.085 0-1.311-1.085-1.311h-2.803c-3.3 0-4.25 1.809-5.606 5.108-.542.271-1.402.181-1.673-.406.949-3.12 1.175-5.923 1.492-7.687.181-.136.407-.226.633-.226s.452.045.633.181c.226.769.362.949 3.798.949h16.819c2.984 0 3.662-.045 4.069-.994.181-.091.316-.136.588-.136.271 0 .588.181.678.316-.452 1.537-.769 5.199-.678 7.776-.226.406-1.447.497-1.673.136-.769-2.894-1.402-5.019-4.792-5.019h-2.713c-1.085 0-1.221.136-1.221 1.311v19.938c0 4.205.271 4.566 2.306 4.838l1.808.227c.316.271.316 1.311 0 1.582-2.938-.091-5.199-.136-7.234-.136-2.17 0-4.521.045-7.686.136-.361-.271-.361-1.312 0-1.582l2.035-.227c2.035-.226 2.306-.633 2.306-4.838V27.417zM182.861 27.417c0-1.085 0-1.311-1.085-1.311h-2.803c-3.3 0-4.25 1.809-5.606 5.108-.542.271-1.402.181-1.673-.406.949-3.12 1.175-5.923 1.492-7.687.181-.136.407-.226.633-.226s.452.045.633.181c.226.769.362.949 3.798.949h16.819c2.984 0 3.662-.045 4.069-.994.181-.091.316-.136.588-.136.271 0 .588.181.678.316-.452 1.537-.769 5.199-.678 7.776-.226.406-1.447.497-1.673.136-.769-2.894-1.401-5.019-4.792-5.019h-2.713c-1.085 0-1.221.136-1.221 1.311v19.938c0 4.205.271 4.566 2.306 4.838l1.808.227c.317.271.317 1.311 0 1.582-2.938-.091-5.199-.136-7.234-.136-2.17 0-4.521.045-7.686.136-.361-.271-.361-1.312 0-1.582l2.035-.227c2.035-.226 2.306-.633 2.306-4.838V27.417z"/>
    <path d="M227.247 30.809c0-4.748-.09-5.471-2.938-5.697l-1.13-.09c-.271-.182-.182-.995.09-1.131 2.532.091 4.069.136 5.878.136 1.763 0 3.3-.045 5.562-.136.271.136.361.949.09 1.131l-1.085.09c-2.667.227-2.758.949-2.758 5.697v15.733c0 2.849.136 4.023.949 4.883.497.497 1.356 1.04 4.929 1.04 3.842 0 4.792-.181 5.516-.588.904-.543 2.08-2.17 2.983-4.476.271-.227 1.13-.046 1.13.271 0 .498-1.266 5.109-1.898 6.33-2.306-.091-6.601-.136-11.258-.136h-4.159c-1.899 0-3.346.045-5.878.136-.271-.136-.361-.859-.09-1.131l1.355-.135c2.623-.271 2.713-.904 2.713-5.652V30.809zM256.639 39.263c0-9.042 6.781-15.96 16.096-15.96 10.443 0 15.688 7.551 15.688 15.508 0 9.133-6.963 15.779-15.688 15.779-10.037 0-16.096-7.189-16.096-15.327zm27.262.949c0-7.46-3.3-15.507-11.936-15.507-4.701 0-10.805 3.21-10.805 13.111 0 6.691 3.254 15.372 12.161 15.372 5.427 0 10.58-4.069 10.58-12.976zM326.994 49.255c0 1.809.271 2.894 1.085 3.21a.371.371 0 0 1-.045.542c-.543 0-1.356.182-2.216.407-2.396.633-5.651 1.176-8.093 1.176-5.381 0-10.309-1.492-13.789-5.019-2.713-2.713-4.16-6.284-4.16-10.264 0-3.843 1.266-7.73 4.069-10.715 3.029-3.165 7.505-5.29 14.332-5.29 2.577 0 4.974.498 5.741.679.859.181 2.262.497 2.804.406 0 1.492.271 3.844.679 6.556-.137.362-.949.407-1.221.136-1.267-4.883-4.657-6.42-9.27-6.42-8.771 0-12.613 6.239-12.613 13.021 0 8.681 4.476 15.508 13.563 15.508 2.804 0 4.476-.588 4.974-1.356.226-.316.451-1.131.451-2.577v-1.809c0-3.798-.135-4.069-2.938-4.386l-1.989-.226c-.361-.182-.316-.995 0-1.131 1.312.091 3.798.136 6.465.136 1.764 0 3.301-.045 4.793-.136.316.181.361.859.045 1.131l-.723.09c-1.899.227-1.944 1.492-1.944 3.798v2.533zM346.258 30.898c0-4.792-.09-5.561-2.758-5.787l-1.13-.09c-.271-.182-.181-.995.091-1.131 2.26.091 3.797.136 5.696.136 1.809 0 3.346-.045 5.606-.136.271.136.361.949.09 1.131l-1.13.09c-2.667.227-2.758.995-2.758 5.787v16.096c0 4.792.091 5.426 2.758 5.742l1.13.135c.271.182.182.995-.09 1.131-2.261-.091-3.798-.136-5.606-.136-1.899 0-3.437.045-5.696.136-.271-.136-.362-.859-.091-1.131l1.13-.135c2.668-.316 2.758-.95 2.758-5.742V30.898zM371.083 27.146c3.301-2.577 7.506-3.844 12.207-3.844 2.441 0 5.878.498 8.003 1.085.542.136.859.227 1.267.182.045 1.039.271 3.888.633 6.646-.227.316-.904.362-1.221.091-.679-3.074-2.713-6.601-9.269-6.601-6.917 0-12.795 4.385-12.795 13.744 0 9.494 6.013 14.739 13.428 14.739 5.832 0 8.409-3.798 9.449-6.466.316-.226.995-.136 1.175.181-.316 2.352-1.491 5.335-2.17 6.194-.542.091-1.084.271-1.582.452-.994.361-4.25 1.04-7.144 1.04-4.069 0-7.957-.814-11.258-3.029-3.616-2.486-6.42-6.601-6.42-12.434 0-5.018 2.261-9.313 5.697-11.98z"/>
    <path d="M14.709 75.088h379.843v.754H14.709z"/>
  </g>
</svg>
