<?xml version="1.0" encoding="UTF-8" standalone="no"?>
<!DOCTYPE svg PUBLIC "-//W3C//DTD SVG 1.1//EN"
 "http://www.w3.org/Graphics/SVG/1.1/DTD/svg11.dtd">
<!-- Generated by graphviz version 2.38.0 (20140413.2041)
 -->
<!-- Title: tree Pages: 1 -->
<svg width="142pt" height="188pt"
 viewBox="0.00 0.00 141.50 188.00" xmlns="http://www.w3.org/2000/svg" xmlns:xlink="http://www.w3.org/1999/xlink">
<g id="graph0" class="graph" transform="scale(1 1) rotate(0) translate(4 184)">
<title>tree</title>
<!-- c0 -->
<g id="node1" class="node"><title>c0</title>
<polygon fill="white" stroke="black" points="92,-180 38,-180 38,-144 92,-144 92,-180"/>
<text text-anchor="middle" x="65" y="-158.9" font-family="Times New Roman,serif" font-size="12.00">x = 3</text>
</g>
<!-- d1 -->
<g id="node2" class="node"><title>d1</title>
<polygon fill="white" stroke="black" points="65,-72 92,-99 38,-99 65,-72"/>
</g>
<!-- c0&#45;&#45;d1 -->
<g id="edge1" class="edge"><title>c0&#45;&#45;d1</title>
<path fill="none" stroke="black" d="M65,-143.697C65,-129.445 65,-109.882 65,-99.047"/>
</g>
<!-- c2 -->
<g id="node3" class="node"><title>c2</title>
<polygon fill="white" stroke="black" points="54,-36 0,-36 0,-0 54,-0 54,-36"/>
<text text-anchor="middle" x="27" y="-21.4" font-family="Times New Roman,serif" font-size="12.00">x &gt; 12</text>
<text text-anchor="middle" x="27" y="-8.4" font-family="Times New Roman,serif" font-size="12.00">y = 5</text>
</g>
<!-- d1&#45;&#45;c2 -->
<g id="edge2" class="edge"><title>d1&#45;&#45;c2</title>
<path fill="none" stroke="black" d="M58.8946,-77.7533C52.8105,-66.5456 43.3862,-49.1851 36.3575,-36.2374"/>
</g>
<!-- c3 -->
<g id="node4" class="node"><title>c3</title>
<polygon fill="white" stroke="black" points="133.5,-36 72.5,-36 72.5,-0 133.5,-0 133.5,-36"/>
<text text-anchor="middle" x="103" y="-14.9" font-family="Times New Roman,serif" font-size="12.00">¬(x &gt; 12)</text>
</g>
<!-- d1&#45;&#45;c3 -->
<g id="edge3" class="edge"><title>d1&#45;&#45;c3</title>
<path fill="none" stroke="black" d="M71.1054,-77.7533C77.1895,-66.5456 86.6138,-49.1851 93.6425,-36.2374"/>
</g>
</g>
</svg>
