<?xml version="1.0" encoding="UTF-8" standalone="no"?>
<!DOCTYPE svg PUBLIC "-//W3C//DTD SVG 1.1//EN"
 "http://www.w3.org/Graphics/SVG/1.1/DTD/svg11.dtd">
<!-- Generated by graphviz version 2.38.0 (20140413.2041)
 -->
<!-- Title: tree Pages: 1 -->
<svg width="278pt" height="188pt"
     viewBox="0.00 0.00 278.00 188.00" xmlns="http://www.w3.org/2000/svg">
<g id="graph0" class="graph" transform="scale(1 1) rotate(0) translate(4 184)">
<title>tree</title>
<!-- c0 -->
<g id="node1" class="node"><title>c0</title>
<polygon fill="white" stroke="black" points="162,-180 108,-180 108,-144 162,-144 162,-180"/>
</g>
<!-- d1 -->
<g id="node2" class="node"><title>d1</title>
<polygon fill="white" stroke="black" points="99,-72 126,-99 72,-99 99,-72"/>
</g>
<!-- c0&#45;&#45;d1 -->
<g id="edge1" class="edge"><title>c0&#45;&#45;d1</title>
<path fill="none" stroke="black" d="M126.101,-143.697C118.772,-129.445 108.711,-109.882 103.138,-99.047"/>
</g>
<!-- d4 -->
<g id="node5" class="node"><title>d4</title>
<polygon fill="white" stroke="black" points="171,-72 198,-99 144,-99 171,-72"/>
</g>
<!-- c0&#45;&#45;d4 -->
<g id="edge4" class="edge"><title>c0&#45;&#45;d4</title>
<path fill="none" stroke="black" d="M143.899,-143.697C151.228,-129.445 161.289,-109.882 166.862,-99.047"/>
</g>
<!-- c2 -->
<g id="node3" class="node"><title>c2</title>
<polygon fill="white" stroke="black" points="54,-36 0,-36 0,-0 54,-0 54,-36"/>
<text text-anchor="middle" x="27" y="-14.9" font-family="Times New Roman,serif" font-size="12.00">x = a</text>
</g>
<!-- d1&#45;&#45;c2 -->
<g id="edge2" class="edge"><title>d1&#45;&#45;c2</title>
<path fill="none" stroke="black" d="M90.1714,-80.4166C78.9061,-69.4643 59.1542,-50.261 44.7285,-36.236"/>
</g>
<!-- c3 -->
<g id="node4" class="node"><title>c3</title>
<polygon fill="white" stroke="black" points="126,-36 72,-36 72,-0 126,-0 126,-36"/>
<text text-anchor="middle" x="99" y="-14.9" font-family="Times New Roman,serif" font-size="12.00">x = b</text>
</g>
<!-- d1&#45;&#45;c3 -->
<g id="edge3" class="edge"><title>d1&#45;&#45;c3</title>
<path fill="none" stroke="black" d="M99,-71.6966C99,-60.8463 99,-46.9167 99,-36.1043"/>
</g>
<!-- c5 -->
<g id="node6" class="node"><title>c5</title>
<polygon fill="white" stroke="black" points="198,-36 144,-36 144,-0 198,-0 198,-36"/>
<text text-anchor="middle" x="171" y="-14.9" font-family="Times New Roman,serif" font-size="12.00">y = 1</text>
</g>
<!-- d4&#45;&#45;c5 -->
<g id="edge5" class="edge"><title>d4&#45;&#45;c5</title>
<path fill="none" stroke="black" d="M171,-71.6966C171,-60.8463 171,-46.9167 171,-36.1043"/>
</g>
<!-- c6 -->
<g id="node7" class="node"><title>c6</title>
<polygon fill="white" stroke="black" points="270,-36 216,-36 216,-0 270,-0 270,-36"/>
<text text-anchor="middle" x="243" y="-14.9" font-family="Times New Roman,serif" font-size="12.00">y = 2</text>
</g>
<!-- d4&#45;&#45;c6 -->
<g id="edge6" class="edge"><title>d4&#45;&#45;c6</title>
<path fill="none" stroke="black" d="M179.829,-80.4166C191.094,-69.4643 210.846,-50.261 225.272,-36.236"/>
</g>
</g>
</svg>
