<?xml version="1.0" encoding="UTF-8" standalone="no"?>
<!DOCTYPE svg PUBLIC "-//W3C//DTD SVG 1.1//EN"
 "http://www.w3.org/Graphics/SVG/1.1/DTD/svg11.dtd">
<!-- Generated by graphviz version 2.38.0 (20140413.2041)
 -->
<!-- Title: tree Pages: 1 -->
<svg width="134pt" height="188pt"
 viewBox="0.00 0.00 134.00 188.00" xmlns="http://www.w3.org/2000/svg" xmlns:xlink="http://www.w3.org/1999/xlink">
<g id="graph0" class="graph" transform="scale(1 1) rotate(0) translate(4 184)">
<title>tree</title>
<!-- c0 -->
<g id="node1" class="node"><title>c0</title>
<polygon fill="white" stroke="black" points="90,-180 36,-180 36,-144 90,-144 90,-180"/>
</g>
<!-- d1 -->
<g id="node2" class="node"><title>d1</title>
<polygon fill="white" stroke="black" points="63,-72 90,-99 36,-99 63,-72"/>
</g>
<!-- c0&#45;&#45;d1 -->
<g id="edge1" class="edge"><title>c0&#45;&#45;d1</title>
<path fill="none" stroke="black" d="M63,-143.697C63,-129.445 63,-109.882 63,-99.047"/>
</g>
<!-- c2 -->
<g id="node3" class="node"><title>c2</title>
<polygon fill="white" stroke="black" points="54,-36 0,-36 0,-0 54,-0 54,-36"/>
<text text-anchor="middle" x="27" y="-14.9" font-family="Times New Roman,serif" font-size="12.00">y = 1</text>
</g>
<!-- d1&#45;&#45;c2 -->
<g id="edge2" class="edge"><title>d1&#45;&#45;c2</title>
<path fill="none" stroke="black" d="M57.216,-77.7533C51.452,-66.5456 42.5238,-49.1851 35.865,-36.2374"/>
</g>
<!-- c3 -->
<g id="node4" class="node"><title>c3</title>
<polygon fill="white" stroke="black" points="126,-36 72,-36 72,-0 126,-0 126,-36"/>
<text text-anchor="middle" x="99" y="-14.9" font-family="Times New Roman,serif" font-size="12.00">y = 2</text>
</g>
<!-- d1&#45;&#45;c3 -->
<g id="edge3" class="edge"><title>d1&#45;&#45;c3</title>
<path fill="none" stroke="black" d="M68.784,-77.7533C74.548,-66.5456 83.4762,-49.1851 90.135,-36.2374"/>
</g>
</g>
</svg>
